<svg id="svg" fill="#ffffff" stroke="#ffffff" width="512" height="512" version="1.1" viewBox="144 144 512 512" xmlns="http://www.w3.org/2000/svg">
    <g id="IconSvg_bgCarrier" stroke-width="0"></g>
    <g id="IconSvg_tracerCarrier" stroke-linecap="round" stroke-linejoin="round" stroke="#CCCCCC" stroke-width="0">
      <path xmlns="http://www.w3.org/2000/svg" d="m337.02 415.74h-47.234c-12.527 0-24.539 4.9766-33.398 13.836-8.8555 8.8555-13.832 20.871-13.832 33.398v47.23c0 12.527 4.9766 24.539 13.832 33.398 8.8594 8.8555 20.871 13.832 33.398 13.832h47.234c12.527 0 24.539-4.9766 33.398-13.832 8.8555-8.8594 13.832-20.871 13.832-33.398v-47.23c0-12.527-4.9766-24.543-13.832-33.398-8.8594-8.8594-20.871-13.836-33.398-13.836zm15.742 94.465c0 4.1758-1.6562 8.1797-4.6094 11.133s-6.957 4.6094-11.133 4.6094h-47.234c-4.1758 0-8.1797-1.6562-11.133-4.6094s-4.6094-6.957-4.6094-11.133v-47.23c0-4.1758 1.6562-8.1836 4.6094-11.133 2.9531-2.9531 6.957-4.6133 11.133-4.6133h47.234c4.1758 0 8.1797 1.6602 11.133 4.6133 2.9531 2.9492 4.6094 6.957 4.6094 11.133zm157.44-94.465h-47.23c-12.527 0-24.543 4.9766-33.398 13.836-8.8594 8.8555-13.836 20.871-13.836 33.398v47.23c0 12.527 4.9766 24.539 13.836 33.398 8.8555 8.8555 20.871 13.832 33.398 13.832h47.23c12.527 0 24.539-4.9766 33.398-13.832 8.8555-8.8594 13.832-20.871 13.832-33.398v-47.23c0-12.527-4.9766-24.543-13.832-33.398-8.8594-8.8594-20.871-13.836-33.398-13.836zm15.742 94.465c0 4.1758-1.6562 8.1797-4.6094 11.133s-6.957 4.6094-11.133 4.6094h-47.23c-4.1758 0-8.1836-1.6562-11.133-4.6094-2.9531-2.9531-4.6133-6.957-4.6133-11.133v-47.23c0-4.1758 1.6602-8.1836 4.6133-11.133 2.9492-2.9531 6.957-4.6133 11.133-4.6133h47.23c4.1758 0 8.1797 1.6602 11.133 4.6133 2.9531 2.9492 4.6094 6.957 4.6094 11.133zm-188.93-267.65h-47.234c-12.527 0-24.539 4.9766-33.398 13.832-8.8555 8.8594-13.832 20.871-13.832 33.398v47.234c0 12.527 4.9766 24.539 13.832 33.398 8.8594 8.8555 20.871 13.832 33.398 13.832h47.234c12.527 0 24.539-4.9766 33.398-13.832 8.8555-8.8594 13.832-20.871 13.832-33.398v-47.234c0-12.527-4.9766-24.539-13.832-33.398-8.8594-8.8555-20.871-13.832-33.398-13.832zm15.742 94.465c0 4.1758-1.6562 8.1797-4.6094 11.133s-6.957 4.6094-11.133 4.6094h-47.234c-4.1758 0-8.1797-1.6562-11.133-4.6094s-4.6094-6.957-4.6094-11.133v-47.234c0-4.1758 1.6562-8.1797 4.6094-11.133s6.957-4.6094 11.133-4.6094h47.234c4.1758 0 8.1797 1.6562 11.133 4.6094s4.6094 6.957 4.6094 11.133zm157.44-94.465h-47.23c-12.527 0-24.543 4.9766-33.398 13.832-8.8594 8.8594-13.836 20.871-13.836 33.398v47.234c0 12.527 4.9766 24.539 13.836 33.398 8.8555 8.8555 20.871 13.832 33.398 13.832h47.23c12.527 0 24.539-4.9766 33.398-13.832 8.8555-8.8594 13.832-20.871 13.832-33.398v-47.234c0-12.527-4.9766-24.539-13.832-33.398-8.8594-8.8555-20.871-13.832-33.398-13.832zm15.742 94.465c0 4.1758-1.6562 8.1797-4.6094 11.133s-6.957 4.6094-11.133 4.6094h-47.23c-4.1758 0-8.1836-1.6562-11.133-4.6094-2.9531-2.9531-4.6133-6.957-4.6133-11.133v-47.234c0-4.1758 1.6602-8.1797 4.6133-11.133 2.9492-2.9531 6.957-4.6094 11.133-4.6094h47.23c4.1758 0 8.1797 1.6562 11.133 4.6094s4.6094 6.957 4.6094 11.133z"></path>

      </g>
     <g id="IconSvg_iconCarrier">
      <path xmlns="http://www.w3.org/2000/svg" d="m337.02 415.74h-47.234c-12.527 0-24.539 4.9766-33.398 13.836-8.8555 8.8555-13.832 20.871-13.832 33.398v47.23c0 12.527 4.9766 24.539 13.832 33.398 8.8594 8.8555 20.871 13.832 33.398 13.832h47.234c12.527 0 24.539-4.9766 33.398-13.832 8.8555-8.8594 13.832-20.871 13.832-33.398v-47.23c0-12.527-4.9766-24.543-13.832-33.398-8.8594-8.8594-20.871-13.836-33.398-13.836zm15.742 94.465c0 4.1758-1.6562 8.1797-4.6094 11.133s-6.957 4.6094-11.133 4.6094h-47.234c-4.1758 0-8.1797-1.6562-11.133-4.6094s-4.6094-6.957-4.6094-11.133v-47.23c0-4.1758 1.6562-8.1836 4.6094-11.133 2.9531-2.9531 6.957-4.6133 11.133-4.6133h47.234c4.1758 0 8.1797 1.6602 11.133 4.6133 2.9531 2.9492 4.6094 6.957 4.6094 11.133zm157.44-94.465h-47.23c-12.527 0-24.543 4.9766-33.398 13.836-8.8594 8.8555-13.836 20.871-13.836 33.398v47.23c0 12.527 4.9766 24.539 13.836 33.398 8.8555 8.8555 20.871 13.832 33.398 13.832h47.23c12.527 0 24.539-4.9766 33.398-13.832 8.8555-8.8594 13.832-20.871 13.832-33.398v-47.23c0-12.527-4.9766-24.543-13.832-33.398-8.8594-8.8594-20.871-13.836-33.398-13.836zm15.742 94.465c0 4.1758-1.6562 8.1797-4.6094 11.133s-6.957 4.6094-11.133 4.6094h-47.23c-4.1758 0-8.1836-1.6562-11.133-4.6094-2.9531-2.9531-4.6133-6.957-4.6133-11.133v-47.23c0-4.1758 1.6602-8.1836 4.6133-11.133 2.9492-2.9531 6.957-4.6133 11.133-4.6133h47.23c4.1758 0 8.1797 1.6602 11.133 4.6133 2.9531 2.9492 4.6094 6.957 4.6094 11.133zm-188.93-267.65h-47.234c-12.527 0-24.539 4.9766-33.398 13.832-8.8555 8.8594-13.832 20.871-13.832 33.398v47.234c0 12.527 4.9766 24.539 13.832 33.398 8.8594 8.8555 20.871 13.832 33.398 13.832h47.234c12.527 0 24.539-4.9766 33.398-13.832 8.8555-8.8594 13.832-20.871 13.832-33.398v-47.234c0-12.527-4.9766-24.539-13.832-33.398-8.8594-8.8555-20.871-13.832-33.398-13.832zm15.742 94.465c0 4.1758-1.6562 8.1797-4.6094 11.133s-6.957 4.6094-11.133 4.6094h-47.234c-4.1758 0-8.1797-1.6562-11.133-4.6094s-4.6094-6.957-4.6094-11.133v-47.234c0-4.1758 1.6562-8.1797 4.6094-11.133s6.957-4.6094 11.133-4.6094h47.234c4.1758 0 8.1797 1.6562 11.133 4.6094s4.6094 6.957 4.6094 11.133zm157.44-94.465h-47.23c-12.527 0-24.543 4.9766-33.398 13.832-8.8594 8.8594-13.836 20.871-13.836 33.398v47.234c0 12.527 4.9766 24.539 13.836 33.398 8.8555 8.8555 20.871 13.832 33.398 13.832h47.23c12.527 0 24.539-4.9766 33.398-13.832 8.8555-8.8594 13.832-20.871 13.832-33.398v-47.234c0-12.527-4.9766-24.539-13.832-33.398-8.8594-8.8555-20.871-13.832-33.398-13.832zm15.742 94.465c0 4.1758-1.6562 8.1797-4.6094 11.133s-6.957 4.6094-11.133 4.6094h-47.23c-4.1758 0-8.1836-1.6562-11.133-4.6094-2.9531-2.9531-4.6133-6.957-4.6133-11.133v-47.234c0-4.1758 1.6602-8.1797 4.6133-11.133 2.9492-2.9531 6.957-4.6094 11.133-4.6094h47.23c4.1758 0 8.1797 1.6562 11.133 4.6094s4.6094 6.957 4.6094 11.133z"></path>

      </g>
      </svg>